<svg width="216" height="82" viewBox="0 0 216 82" fill="none" xmlns="http://www.w3.org/2000/svg">
<path d="M23.2 63.48C18.9333 63.48 15.0933 62.52 11.68 60.6C8.32 58.6267 5.65333 55.96 3.68 52.6C1.76 49.1867 0.8 45.3467 0.8 41.08C0.8 36.8133 1.76 33 3.68 29.64C5.65333 26.28 8.32 23.64 11.68 21.72C15.0933 19.7467 18.9333 18.76 23.2 18.76C27.04 18.76 30.48 19.5867 33.52 21.24C36.6133 22.8933 39.0133 25.1067 40.72 27.88V2.92C40.72 2.17333 40.9333 1.58666 41.36 1.16C41.84 0.733331 42.4267 0.519999 43.12 0.519999C43.8667 0.519999 44.4533 0.733331 44.88 1.16C45.3067 1.58666 45.52 2.17333 45.52 2.92V41.56C45.4667 45.72 44.4533 49.4533 42.48 52.76C40.5067 56.0667 37.84 58.68 34.48 60.6C31.1733 62.52 27.4133 63.48 23.2 63.48ZM23.2 59C26.56 59 29.5467 58.2267 32.16 56.68C34.8267 55.08 36.9067 52.9467 38.4 50.28C39.9467 47.56 40.72 44.4933 40.72 41.08C40.72 37.6667 39.9467 34.6267 38.4 31.96C36.9067 29.2933 34.8267 27.1867 32.16 25.64C29.5467 24.04 26.56 23.24 23.2 23.24C19.8933 23.24 16.9067 24.04 14.24 25.64C11.5733 27.1867 9.46667 29.2933 7.92 31.96C6.37333 34.6267 5.6 37.6667 5.6 41.08C5.6 44.4933 6.37333 47.56 7.92 50.28C9.46667 52.9467 11.5733 55.08 14.24 56.68C16.9067 58.2267 19.8933 59 23.2 59ZM73.6788 63.4C69.4654 63.4 65.7054 62.4667 62.3988 60.6C59.1454 58.68 56.5854 56.04 54.7188 52.68C52.8521 49.32 51.9188 45.48 51.9188 41.16C51.9188 36.7867 52.7988 32.9467 54.5588 29.64C56.3188 26.28 58.7454 23.64 61.8388 21.72C64.9321 19.8 68.4788 18.84 72.4788 18.84C76.4254 18.84 79.9188 19.7733 82.9588 21.64C85.9988 23.4533 88.3721 25.9867 90.0788 29.24C91.7854 32.44 92.6388 36.1467 92.6388 40.36C92.6388 41.0533 92.4254 41.6133 91.9988 42.04C91.5721 42.4133 91.0121 42.6 90.3188 42.6H55.1188V38.44H91.5988L88.0788 41.08C88.1854 37.6133 87.5988 34.5467 86.3188 31.88C85.0388 29.2133 83.1988 27.1333 80.7988 25.64C78.4521 24.0933 75.6788 23.32 72.4788 23.32C69.4388 23.32 66.7188 24.0933 64.3188 25.64C61.9721 27.1333 60.1054 29.2133 58.7188 31.88C57.3854 34.5467 56.7188 37.64 56.7188 41.16C56.7188 44.6267 57.4388 47.6933 58.8788 50.36C60.3188 53.0267 62.3188 55.1333 64.8788 56.68C67.4388 58.1733 70.3721 58.92 73.6788 58.92C75.7588 58.92 77.8388 58.5733 79.9188 57.88C82.0521 57.1333 83.7321 56.1733 84.9588 55C85.3854 54.5733 85.8921 54.36 86.4788 54.36C87.1188 54.3067 87.6521 54.4667 88.0788 54.84C88.6654 55.32 88.9588 55.8533 88.9588 56.44C89.0121 57.0267 88.7721 57.56 88.2388 58.04C86.5321 59.5867 84.2921 60.8667 81.5188 61.88C78.7988 62.8933 76.1854 63.4 73.6788 63.4ZM99.8688 81.72C99.1754 81.72 98.5888 81.48 98.1088 81C97.6821 80.5733 97.4688 80.0133 97.4688 79.32V40.68C97.5754 36.4667 98.5888 32.7333 100.509 29.48C102.482 26.1733 105.149 23.56 108.509 21.64C111.869 19.72 115.629 18.76 119.789 18.76C124.055 18.76 127.869 19.7467 131.229 21.72C134.642 23.64 137.309 26.3067 139.229 29.72C141.202 33.08 142.189 36.8933 142.189 41.16C142.189 45.3733 141.202 49.1867 139.229 52.6C137.309 55.96 134.642 58.6267 131.229 60.6C127.869 62.52 124.055 63.48 119.789 63.48C115.949 63.48 112.482 62.6533 109.389 61C106.349 59.3467 103.975 57.1333 102.269 54.36V79.32C102.269 80.0133 102.055 80.5733 101.629 81C101.202 81.48 100.615 81.72 99.8688 81.72ZM119.789 59C123.149 59 126.135 58.2267 128.749 56.68C131.415 55.08 133.522 52.9467 135.069 50.28C136.615 47.56 137.389 44.52 137.389 41.16C137.389 37.7467 136.615 34.7067 135.069 32.04C133.522 29.32 131.415 27.1867 128.749 25.64C126.135 24.04 123.149 23.24 119.789 23.24C116.482 23.24 113.495 24.04 110.829 25.64C108.162 27.1867 106.055 29.32 104.509 32.04C103.015 34.7067 102.269 37.7467 102.269 41.16C102.269 44.52 103.015 47.56 104.509 50.28C106.055 52.9467 108.162 55.08 110.829 56.68C113.495 58.2267 116.482 59 119.789 59ZM166.507 63C163.574 62.9467 160.961 62.28 158.667 61C156.374 59.6667 154.587 57.8533 153.307 55.56C152.027 53.2133 151.387 50.5733 151.387 47.64V7.8C151.387 7.05333 151.601 6.46666 152.027 6.04C152.507 5.56 153.094 5.32 153.787 5.32C154.534 5.32 155.121 5.56 155.547 6.04C156.027 6.46666 156.267 7.05333 156.267 7.8V47.64C156.267 50.7333 157.227 53.2667 159.147 55.24C161.067 57.16 163.547 58.12 166.587 58.12H168.347C169.094 58.12 169.681 58.36 170.107 58.84C170.587 59.2667 170.827 59.8533 170.827 60.6C170.827 61.2933 170.587 61.88 170.107 62.36C169.681 62.7867 169.094 63 168.347 63H166.507ZM145.147 25.16C144.507 25.16 143.974 24.9733 143.547 24.6C143.174 24.1733 142.987 23.64 142.987 23C142.987 22.36 143.174 21.8533 143.547 21.48C143.974 21.0533 144.507 20.84 145.147 20.84H166.827C167.467 20.84 167.974 21.0533 168.347 21.48C168.774 21.8533 168.987 22.36 168.987 23C168.987 23.64 168.774 24.1733 168.347 24.6C167.974 24.9733 167.467 25.16 166.827 25.16H145.147ZM177.653 43.8C176.96 43.8 176.373 43.5867 175.893 43.16C175.466 42.68 175.253 42.0933 175.253 41.4V2.92C175.253 2.17333 175.466 1.58666 175.893 1.16C176.373 0.733331 176.96 0.519999 177.653 0.519999C178.4 0.519999 178.986 0.733331 179.413 1.16C179.84 1.58666 180.053 2.17333 180.053 2.92V41.4C180.053 42.0933 179.84 42.68 179.413 43.16C178.986 43.5867 178.4 43.8 177.653 43.8ZM213.093 63C212.4 63 211.813 62.7867 211.333 62.36C210.906 61.88 210.693 61.2933 210.693 60.6V39.08C210.693 35.56 210 32.6533 208.613 30.36C207.28 28.0667 205.44 26.36 203.093 25.24C200.8 24.0667 198.186 23.48 195.253 23.48C192.373 23.48 189.786 24.04 187.493 25.16C185.2 26.2267 183.386 27.72 182.053 29.64C180.72 31.56 180.053 33.72 180.053 36.12H176.053C176.266 32.8133 177.253 29.8533 179.013 27.24C180.773 24.5733 183.066 22.4933 185.893 21C188.72 19.4533 191.84 18.68 195.253 18.68C199.093 18.68 202.533 19.48 205.573 21.08C208.666 22.6267 211.093 24.92 212.853 27.96C214.613 30.9467 215.493 34.6533 215.493 39.08V60.6C215.493 61.2933 215.253 61.88 214.773 62.36C214.346 62.7867 213.786 63 213.093 63ZM177.653 63C176.96 63 176.373 62.7867 175.893 62.36C175.466 61.88 175.253 61.2933 175.253 60.6V21.64C175.253 20.8933 175.466 20.3067 175.893 19.88C176.373 19.4533 176.96 19.24 177.653 19.24C178.4 19.24 178.986 19.4533 179.413 19.88C179.84 20.3067 180.053 20.8933 180.053 21.64V60.6C180.053 61.2933 179.84 61.88 179.413 62.36C178.986 62.7867 178.4 63 177.653 63Z" fill="black"/>
</svg>
