<svg width="572" height="82" viewBox="0 0 572 82" fill="none" xmlns="http://www.w3.org/2000/svg">
<path d="M15.96 63C15.4267 63 14.9467 62.8667 14.52 62.6C14.1467 62.3333 13.88 61.96 13.72 61.48L0.76 22.68C0.546667 21.5067 0.6 20.6533 0.92 20.12C1.24 19.5333 1.8 19.24 2.6 19.24C3.02667 19.24 3.45333 19.3733 3.88 19.64C4.30667 19.8533 4.62667 20.2 4.84 20.68L16.68 56.36H15.64L26.52 21.16C26.68 20.5733 26.9733 20.12 27.4 19.8C27.8267 19.4267 28.3333 19.24 28.92 19.24C29.5067 19.24 29.9867 19.4267 30.36 19.8C30.7867 20.12 31.1067 20.5733 31.32 21.16L42.52 56.36H41.08L52.92 20.68C53.3467 19.72 54.0933 19.24 55.16 19.24C56.12 19.24 56.76 19.6133 57.08 20.36C57.4533 21.1067 57.4533 21.88 57.08 22.68L44.2 61.48C44.04 61.96 43.7467 62.3333 43.32 62.6C42.9467 62.8667 42.4667 63 41.88 63C41.3467 63 40.8667 62.8667 40.44 62.6C40.0133 62.3333 39.7467 61.96 39.64 61.48L28.2 25.96H29.24L18.2 61.48C17.9867 62.0133 17.6667 62.4133 17.24 62.68C16.8667 62.8933 16.44 63 15.96 63ZM78.9594 63.48C74.6927 63.48 70.8527 62.52 67.4394 60.6C64.0794 58.6267 61.4127 55.96 59.4394 52.6C57.5194 49.1867 56.5594 45.3733 56.5594 41.16C56.5594 36.8933 57.5194 33.08 59.4394 29.72C61.4127 26.3067 64.0794 23.64 67.4394 21.72C70.8527 19.7467 74.6927 18.76 78.9594 18.76C83.226 18.76 87.0394 19.7467 90.3994 21.72C93.7594 23.64 96.3994 26.3067 98.3194 29.72C100.293 33.08 101.279 36.8933 101.279 41.16C101.279 45.3733 100.293 49.1867 98.3194 52.6C96.3994 55.96 93.7594 58.6267 90.3994 60.6C87.0394 62.52 83.226 63.48 78.9594 63.48ZM78.9594 59C82.3194 59 85.306 58.2267 87.9194 56.68C90.586 55.08 92.666 52.9467 94.1594 50.28C95.706 47.56 96.4794 44.4933 96.4794 41.08C96.4794 37.72 95.706 34.7067 94.1594 32.04C92.666 29.32 90.586 27.1867 87.9194 25.64C85.306 24.04 82.3194 23.24 78.9594 23.24C75.6527 23.24 72.666 24.04 69.9994 25.64C67.3327 27.1867 65.226 29.32 63.6794 32.04C62.1327 34.7067 61.3594 37.7467 61.3594 41.16C61.3594 44.52 62.1327 47.56 63.6794 50.28C65.226 52.9467 67.3327 55.08 69.9994 56.68C72.666 58.2267 75.6527 59 78.9594 59ZM109.256 36.28C109.576 32.8667 110.51 29.8533 112.056 27.24C113.603 24.5733 115.603 22.4933 118.056 21C120.51 19.5067 123.23 18.76 126.216 18.76C128.243 18.76 129.816 19 130.936 19.48C132.056 19.96 132.483 20.8133 132.216 22.04C132.056 22.84 131.683 23.32 131.096 23.48C130.51 23.64 129.79 23.6667 128.936 23.56C128.136 23.4 127.23 23.32 126.216 23.32C123.55 23.32 121.176 23.88 119.096 25C117.016 26.12 115.39 27.6667 114.216 29.64C113.043 31.56 112.456 33.7733 112.456 36.28H109.256ZM110.056 63C109.363 63 108.776 62.7867 108.296 62.36C107.87 61.88 107.656 61.2933 107.656 60.6V21.64C107.656 20.8933 107.87 20.3067 108.296 19.88C108.776 19.4533 109.363 19.24 110.056 19.24C110.803 19.24 111.39 19.4533 111.816 19.88C112.243 20.3067 112.456 20.8933 112.456 21.64V60.6C112.456 61.2933 112.243 61.88 111.816 62.36C111.39 62.7867 110.803 63 110.056 63ZM140.334 49.32L137.454 46.12L166.734 19.48C167.268 19.0533 167.774 18.84 168.254 18.84C168.788 18.84 169.294 19.1067 169.774 19.64C170.254 20.1733 170.494 20.7067 170.494 21.24C170.494 21.7733 170.228 22.2533 169.694 22.68L140.334 49.32ZM139.534 63C138.841 63 138.254 62.7867 137.774 62.36C137.348 61.88 137.134 61.2933 137.134 60.6V2.92C137.134 2.17333 137.348 1.58666 137.774 1.16C138.254 0.733331 138.841 0.519999 139.534 0.519999C140.281 0.519999 140.868 0.733331 141.294 1.16C141.721 1.58666 141.934 2.17333 141.934 2.92V60.6C141.934 61.2933 141.721 61.88 141.294 62.36C140.868 62.7867 140.281 63 139.534 63ZM169.854 62.6C169.321 63.08 168.761 63.2667 168.174 63.16C167.641 63.1067 167.161 62.8133 166.734 62.28L147.774 39.08L151.214 36.28L170.174 59.48C170.601 60.0133 170.788 60.5467 170.734 61.08C170.734 61.6133 170.441 62.12 169.854 62.6ZM205.069 63C204.536 63 204.056 62.8667 203.629 62.6C203.256 62.3333 202.989 61.96 202.829 61.48L189.869 22.68C189.656 21.5067 189.709 20.6533 190.029 20.12C190.349 19.5333 190.909 19.24 191.709 19.24C192.136 19.24 192.563 19.3733 192.989 19.64C193.416 19.8533 193.736 20.2 193.949 20.68L205.789 56.36H204.749L215.629 21.16C215.789 20.5733 216.083 20.12 216.509 19.8C216.936 19.4267 217.443 19.24 218.029 19.24C218.616 19.24 219.096 19.4267 219.469 19.8C219.896 20.12 220.216 20.5733 220.429 21.16L231.629 56.36H230.189L242.029 20.68C242.456 19.72 243.203 19.24 244.269 19.24C245.229 19.24 245.869 19.6133 246.189 20.36C246.563 21.1067 246.563 21.88 246.189 22.68L233.309 61.48C233.149 61.96 232.856 62.3333 232.429 62.6C232.056 62.8667 231.576 63 230.989 63C230.456 63 229.976 62.8667 229.549 62.6C229.123 62.3333 228.856 61.96 228.749 61.48L217.309 25.96H218.349L207.309 61.48C207.096 62.0133 206.776 62.4133 206.349 62.68C205.976 62.8933 205.549 63 205.069 63ZM253.631 63C252.938 63 252.351 62.7867 251.871 62.36C251.445 61.88 251.231 61.2933 251.231 60.6V21.64C251.231 20.8933 251.445 20.3067 251.871 19.88C252.351 19.4533 252.938 19.24 253.631 19.24C254.378 19.24 254.965 19.4533 255.391 19.88C255.818 20.3067 256.031 20.8933 256.031 21.64V60.6C256.031 61.2933 255.818 61.88 255.391 62.36C254.965 62.7867 254.378 63 253.631 63ZM253.551 10.04C252.538 10.04 251.658 9.69333 250.911 9C250.218 8.25333 249.871 7.34666 249.871 6.28C249.871 5.05333 250.245 4.14666 250.991 3.56C251.791 2.92 252.671 2.6 253.631 2.6C254.538 2.6 255.365 2.92 256.111 3.56C256.911 4.14666 257.311 5.05333 257.311 6.28C257.311 7.34666 256.938 8.25333 256.191 9C255.498 9.69333 254.618 10.04 253.551 10.04ZM284.373 63C281.44 62.9467 278.826 62.28 276.533 61C274.24 59.6667 272.453 57.8533 271.173 55.56C269.893 53.2133 269.253 50.5733 269.253 47.64V7.8C269.253 7.05333 269.466 6.46666 269.893 6.04C270.373 5.56 270.96 5.32 271.653 5.32C272.4 5.32 272.986 5.56 273.413 6.04C273.893 6.46666 274.133 7.05333 274.133 7.8V47.64C274.133 50.7333 275.093 53.2667 277.013 55.24C278.933 57.16 281.413 58.12 284.453 58.12H286.213C286.96 58.12 287.546 58.36 287.973 58.84C288.453 59.2667 288.693 59.8533 288.693 60.6C288.693 61.2933 288.453 61.88 287.973 62.36C287.546 62.7867 286.96 63 286.213 63H284.373ZM263.013 25.16C262.373 25.16 261.84 24.9733 261.413 24.6C261.04 24.1733 260.853 23.64 260.853 23C260.853 22.36 261.04 21.8533 261.413 21.48C261.84 21.0533 262.373 20.84 263.013 20.84H284.693C285.333 20.84 285.84 21.0533 286.213 21.48C286.64 21.8533 286.853 22.36 286.853 23C286.853 23.64 286.64 24.1733 286.213 24.6C285.84 24.9733 285.333 25.16 284.693 25.16H263.013ZM295.519 43.8C294.825 43.8 294.239 43.5867 293.759 43.16C293.332 42.68 293.119 42.0933 293.119 41.4V2.92C293.119 2.17333 293.332 1.58666 293.759 1.16C294.239 0.733331 294.825 0.519999 295.519 0.519999C296.265 0.519999 296.852 0.733331 297.279 1.16C297.705 1.58666 297.919 2.17333 297.919 2.92V41.4C297.919 42.0933 297.705 42.68 297.279 43.16C296.852 43.5867 296.265 43.8 295.519 43.8ZM330.959 63C330.265 63 329.679 62.7867 329.199 62.36C328.772 61.88 328.559 61.2933 328.559 60.6V39.08C328.559 35.56 327.865 32.6533 326.479 30.36C325.145 28.0667 323.305 26.36 320.959 25.24C318.665 24.0667 316.052 23.48 313.119 23.48C310.239 23.48 307.652 24.04 305.359 25.16C303.065 26.2267 301.252 27.72 299.919 29.64C298.585 31.56 297.919 33.72 297.919 36.12H293.919C294.132 32.8133 295.119 29.8533 296.879 27.24C298.639 24.5733 300.932 22.4933 303.759 21C306.585 19.4533 309.705 18.68 313.119 18.68C316.959 18.68 320.399 19.48 323.439 21.08C326.532 22.6267 328.959 24.92 330.719 27.96C332.479 30.9467 333.359 34.6533 333.359 39.08V60.6C333.359 61.2933 333.119 61.88 332.639 62.36C332.212 62.7867 331.652 63 330.959 63ZM295.519 63C294.825 63 294.239 62.7867 293.759 62.36C293.332 61.88 293.119 61.2933 293.119 60.6V21.64C293.119 20.8933 293.332 20.3067 293.759 19.88C294.239 19.4533 294.825 19.24 295.519 19.24C296.265 19.24 296.852 19.4533 297.279 19.88C297.705 20.3067 297.919 20.8933 297.919 21.64V60.6C297.919 61.2933 297.705 61.88 297.279 62.36C296.852 62.7867 296.265 63 295.519 63ZM379.184 63.48C374.918 63.48 371.078 62.52 367.664 60.6C364.304 58.6267 361.638 55.96 359.664 52.6C357.744 49.1867 356.784 45.3467 356.784 41.08C356.784 36.8133 357.744 33 359.664 29.64C361.638 26.28 364.304 23.64 367.664 21.72C371.078 19.7467 374.918 18.76 379.184 18.76C383.024 18.76 386.464 19.5867 389.504 21.24C392.598 22.8933 394.998 25.1067 396.704 27.88V2.92C396.704 2.17333 396.918 1.58666 397.344 1.16C397.824 0.733331 398.411 0.519999 399.104 0.519999C399.851 0.519999 400.438 0.733331 400.864 1.16C401.291 1.58666 401.504 2.17333 401.504 2.92V41.56C401.451 45.72 400.438 49.4533 398.464 52.76C396.491 56.0667 393.824 58.68 390.464 60.6C387.158 62.52 383.398 63.48 379.184 63.48ZM379.184 59C382.544 59 385.531 58.2267 388.144 56.68C390.811 55.08 392.891 52.9467 394.384 50.28C395.931 47.56 396.704 44.4933 396.704 41.08C396.704 37.6667 395.931 34.6267 394.384 31.96C392.891 29.2933 390.811 27.1867 388.144 25.64C385.531 24.04 382.544 23.24 379.184 23.24C375.878 23.24 372.891 24.04 370.224 25.64C367.558 27.1867 365.451 29.2933 363.904 31.96C362.358 34.6267 361.584 37.6667 361.584 41.08C361.584 44.4933 362.358 47.56 363.904 50.28C365.451 52.9467 367.558 55.08 370.224 56.68C372.891 58.2267 375.878 59 379.184 59ZM429.663 63.4C425.45 63.4 421.69 62.4667 418.383 60.6C415.13 58.68 412.57 56.04 410.703 52.68C408.836 49.32 407.903 45.48 407.903 41.16C407.903 36.7867 408.783 32.9467 410.543 29.64C412.303 26.28 414.73 23.64 417.823 21.72C420.916 19.8 424.463 18.84 428.463 18.84C432.41 18.84 435.903 19.7733 438.943 21.64C441.983 23.4533 444.356 25.9867 446.063 29.24C447.77 32.44 448.623 36.1467 448.623 40.36C448.623 41.0533 448.41 41.6133 447.983 42.04C447.556 42.4133 446.996 42.6 446.303 42.6H411.103V38.44H447.583L444.063 41.08C444.17 37.6133 443.583 34.5467 442.303 31.88C441.023 29.2133 439.183 27.1333 436.783 25.64C434.436 24.0933 431.663 23.32 428.463 23.32C425.423 23.32 422.703 24.0933 420.303 25.64C417.956 27.1333 416.09 29.2133 414.703 31.88C413.37 34.5467 412.703 37.64 412.703 41.16C412.703 44.6267 413.423 47.6933 414.863 50.36C416.303 53.0267 418.303 55.1333 420.863 56.68C423.423 58.1733 426.356 58.92 429.663 58.92C431.743 58.92 433.823 58.5733 435.903 57.88C438.036 57.1333 439.716 56.1733 440.943 55C441.37 54.5733 441.876 54.36 442.463 54.36C443.103 54.3067 443.636 54.4667 444.063 54.84C444.65 55.32 444.943 55.8533 444.943 56.44C444.996 57.0267 444.756 57.56 444.223 58.04C442.516 59.5867 440.276 60.8667 437.503 61.88C434.783 62.8933 432.17 63.4 429.663 63.4ZM455.853 81.72C455.16 81.72 454.573 81.48 454.093 81C453.666 80.5733 453.453 80.0133 453.453 79.32V40.68C453.56 36.4667 454.573 32.7333 456.493 29.48C458.466 26.1733 461.133 23.56 464.493 21.64C467.853 19.72 471.613 18.76 475.773 18.76C480.04 18.76 483.853 19.7467 487.213 21.72C490.626 23.64 493.293 26.3067 495.213 29.72C497.186 33.08 498.173 36.8933 498.173 41.16C498.173 45.3733 497.186 49.1867 495.213 52.6C493.293 55.96 490.626 58.6267 487.213 60.6C483.853 62.52 480.04 63.48 475.773 63.48C471.933 63.48 468.466 62.6533 465.373 61C462.333 59.3467 459.96 57.1333 458.253 54.36V79.32C458.253 80.0133 458.04 80.5733 457.613 81C457.186 81.48 456.6 81.72 455.853 81.72ZM475.773 59C479.133 59 482.12 58.2267 484.733 56.68C487.4 55.08 489.506 52.9467 491.053 50.28C492.6 47.56 493.373 44.52 493.373 41.16C493.373 37.7467 492.6 34.7067 491.053 32.04C489.506 29.32 487.4 27.1867 484.733 25.64C482.12 24.04 479.133 23.24 475.773 23.24C472.466 23.24 469.48 24.04 466.813 25.64C464.146 27.1867 462.04 29.32 460.493 32.04C459 34.7067 458.253 37.7467 458.253 41.16C458.253 44.52 459 47.56 460.493 50.28C462.04 52.9467 464.146 55.08 466.813 56.68C469.48 58.2267 472.466 59 475.773 59ZM522.492 63C519.559 62.9467 516.945 62.28 514.652 61C512.359 59.6667 510.572 57.8533 509.292 55.56C508.012 53.2133 507.372 50.5733 507.372 47.64V7.8C507.372 7.05333 507.585 6.46666 508.012 6.04C508.492 5.56 509.079 5.32 509.772 5.32C510.519 5.32 511.105 5.56 511.532 6.04C512.012 6.46666 512.252 7.05333 512.252 7.8V47.64C512.252 50.7333 513.212 53.2667 515.132 55.24C517.052 57.16 519.532 58.12 522.572 58.12H524.332C525.079 58.12 525.665 58.36 526.092 58.84C526.572 59.2667 526.812 59.8533 526.812 60.6C526.812 61.2933 526.572 61.88 526.092 62.36C525.665 62.7867 525.079 63 524.332 63H522.492ZM501.132 25.16C500.492 25.16 499.959 24.9733 499.532 24.6C499.159 24.1733 498.972 23.64 498.972 23C498.972 22.36 499.159 21.8533 499.532 21.48C499.959 21.0533 500.492 20.84 501.132 20.84H522.812C523.452 20.84 523.959 21.0533 524.332 21.48C524.759 21.8533 524.972 22.36 524.972 23C524.972 23.64 524.759 24.1733 524.332 24.6C523.959 24.9733 523.452 25.16 522.812 25.16H501.132ZM533.637 43.8C532.944 43.8 532.357 43.5867 531.877 43.16C531.451 42.68 531.237 42.0933 531.237 41.4V2.92C531.237 2.17333 531.451 1.58666 531.877 1.16C532.357 0.733331 532.944 0.519999 533.637 0.519999C534.384 0.519999 534.971 0.733331 535.397 1.16C535.824 1.58666 536.037 2.17333 536.037 2.92V41.4C536.037 42.0933 535.824 42.68 535.397 43.16C534.971 43.5867 534.384 43.8 533.637 43.8ZM569.077 63C568.384 63 567.797 62.7867 567.317 62.36C566.891 61.88 566.677 61.2933 566.677 60.6V39.08C566.677 35.56 565.984 32.6533 564.597 30.36C563.264 28.0667 561.424 26.36 559.077 25.24C556.784 24.0667 554.171 23.48 551.237 23.48C548.357 23.48 545.771 24.04 543.477 25.16C541.184 26.2267 539.371 27.72 538.037 29.64C536.704 31.56 536.037 33.72 536.037 36.12H532.037C532.251 32.8133 533.237 29.8533 534.997 27.24C536.757 24.5733 539.051 22.4933 541.877 21C544.704 19.4533 547.824 18.68 551.237 18.68C555.077 18.68 558.517 19.48 561.557 21.08C564.651 22.6267 567.077 24.92 568.837 27.96C570.597 30.9467 571.477 34.6533 571.477 39.08V60.6C571.477 61.2933 571.237 61.88 570.757 62.36C570.331 62.7867 569.771 63 569.077 63ZM533.637 63C532.944 63 532.357 62.7867 531.877 62.36C531.451 61.88 531.237 61.2933 531.237 60.6V21.64C531.237 20.8933 531.451 20.3067 531.877 19.88C532.357 19.4533 532.944 19.24 533.637 19.24C534.384 19.24 534.971 19.4533 535.397 19.88C535.824 20.3067 536.037 20.8933 536.037 21.64V60.6C536.037 61.2933 535.824 61.88 535.397 62.36C534.971 62.7867 534.384 63 533.637 63Z" fill="black"/>
</svg>
