<svg width="24" height="24" viewBox="0 0 24 24" fill="none" xmlns="http://www.w3.org/2000/svg">
<path fill-rule="evenodd" clip-rule="evenodd" d="M7.02157 15.4893C7.62555 15.8135 8.33684 16.1692 9.15544 16.5785L10.2112 17.1063C11.089 17.5452 11.5279 17.7647 12 17.7647C12.4722 17.7647 12.9111 17.5452 13.7889 17.1063L14.8446 16.5785C15.6632 16.1692 16.3745 15.8135 16.9785 15.4893L18.2112 16.1056C18.9917 16.4959 19.382 16.691 19.382 17C19.382 17.3091 18.9917 17.5042 18.2112 17.8945L12.8944 20.5528C12.4555 20.7723 12.2361 20.882 12 20.882C11.7639 20.882 11.5445 20.7723 11.1056 20.5528L11.1056 20.5528L5.78886 17.8945C5.00832 17.5042 4.61804 17.3091 4.61804 17C4.61804 16.691 5.00832 16.4959 5.78886 16.1056L7.02157 15.4893Z" fill="#777"/>
</svg>
